<?xml version="1.0" encoding="UTF-8" standalone="no"?>
<svg
   xmlns:dc="http://purl.org/dc/elements/1.1/"
   xmlns:cc="http://creativecommons.org/ns#"
   xmlns:rdf="http://www.w3.org/1999/02/22-rdf-syntax-ns#"
   xmlns:svg="http://www.w3.org/2000/svg"
   xmlns="http://www.w3.org/2000/svg"
   xmlns:xlink="http://www.w3.org/1999/xlink"
   xmlns:sodipodi="http://sodipodi.sourceforge.net/DTD/sodipodi-0.dtd"
   xmlns:inkscape="http://www.inkscape.org/namespaces/inkscape"
   id="svg3172"
   height="128"
   width="128"
   version="1.1"
   sodipodi:docname="com.github.muriloventuroso.pdftricks.svg"
   inkscape:version="0.92.3 (2405546, 2018-03-11)">
  <sodipodi:namedview
     pagecolor="#ffffff"
     bordercolor="#666666"
     borderopacity="1"
     objecttolerance="10"
     gridtolerance="10"
     guidetolerance="10"
     inkscape:pageopacity="0"
     inkscape:pageshadow="2"
     inkscape:window-width="1920"
     inkscape:window-height="1017"
     id="namedview50"
     showgrid="false"
     inkscape:zoom="1.84375"
     inkscape:cx="141.15254"
     inkscape:cy="53.152542"
     inkscape:window-x="0"
     inkscape:window-y="30"
     inkscape:window-maximized="1"
     inkscape:current-layer="svg3172" />
  <defs
     id="defs3174">
    <linearGradient
       id="linearGradient3977">
      <stop
         offset="0"
         style="stop-color:#ffffff;stop-opacity:1"
         id="stop3979" />
      <stop
         offset="0"
         style="stop-color:#ffffff;stop-opacity:0.23529412"
         id="stop3981" />
      <stop
         offset="1"
         style="stop-color:#ffffff;stop-opacity:0.15686275"
         id="stop3983" />
      <stop
         offset="1"
         style="stop-color:#ffffff;stop-opacity:0.39215687"
         id="stop3985" />
    </linearGradient>
    <linearGradient
       id="linearGradient3600">
      <stop
         offset="0"
         style="stop-color:#f4f4f4;stop-opacity:1"
         id="stop3602" />
      <stop
         offset="1"
         style="stop-color:#dbdbdb;stop-opacity:1"
         id="stop3604" />
    </linearGradient>
    <linearGradient
       id="linearGradient3702-501-757-486">
      <stop
         offset="0"
         style="stop-color:#181818;stop-opacity:0"
         id="stop3100" />
      <stop
         offset="0.5"
         style="stop-color:#181818;stop-opacity:1"
         id="stop3102" />
      <stop
         offset="1"
         style="stop-color:#181818;stop-opacity:0"
         id="stop3104" />
    </linearGradient>
    <linearGradient
       id="linearGradient3688-464-309-255">
      <stop
         offset="0"
         style="stop-color:#181818;stop-opacity:1"
         id="stop3094" />
      <stop
         offset="1"
         style="stop-color:#181818;stop-opacity:0"
         id="stop3096" />
    </linearGradient>
    <linearGradient
       id="linearGradient3688-166-749-737">
      <stop
         offset="0"
         style="stop-color:#181818;stop-opacity:1"
         id="stop3088" />
      <stop
         offset="1"
         style="stop-color:#181818;stop-opacity:0"
         id="stop3090" />
    </linearGradient>
    <linearGradient
       gradientTransform="matrix(2.4594595,0,0,3.1081081,4.9729852,-14.594559)"
       gradientUnits="userSpaceOnUse"
       xlink:href="#linearGradient3977"
       id="linearGradient3016"
       y2="42.339119"
       x2="23.99999"
       y1="5.6608582"
       x1="23.99999" />
    <linearGradient
       gradientTransform="matrix(2.6571409,0,0,2.5422194,0.228619,-4.91283)"
       gradientUnits="userSpaceOnUse"
       xlink:href="#linearGradient3600"
       id="linearGradient3019"
       y2="47.013336"
       x2="25.132275"
       y1="0.98520643"
       x1="25.132275" />
    <linearGradient
       gradientTransform="matrix(3.1428572,0,0,1.2857143,-11.428573,61.571428)"
       gradientUnits="userSpaceOnUse"
       xlink:href="#linearGradient3702-501-757-486"
       id="linearGradient3024"
       y2="39.999443"
       x2="25.058096"
       y1="47.027729"
       x1="25.058096" />
    <radialGradient
       gradientTransform="matrix(2.4045407,0,0,1.7999999,-32.014243,-195.8)"
       gradientUnits="userSpaceOnUse"
       xlink:href="#linearGradient3688-464-309-255"
       id="radialGradient3027"
       fy="43.5"
       fx="4.9929786"
       r="2.5"
       cy="43.5"
       cx="4.9929786" />
    <radialGradient
       gradientTransform="matrix(2.4045407,0,0,1.7999999,95.985757,39.200001)"
       gradientUnits="userSpaceOnUse"
       xlink:href="#linearGradient3688-166-749-737"
       id="radialGradient3030"
       fy="43.5"
       fx="4.9929786"
       r="2.5"
       cy="43.5"
       cx="4.9929786" />
    <radialGradient
       xlink:href="#linearGradient3242-4"
       id="radialGradient3897"
       gradientUnits="userSpaceOnUse"
       gradientTransform="matrix(0,20.003199,-24.504002,0,309.11226,-193.38737)"
       cx="8.276144"
       cy="9.9941158"
       fx="8.276144"
       fy="9.9941158"
       r="12.671875" />
    <linearGradient
       id="linearGradient3242-4">
      <stop
         id="stop3244-7"
         style="stop-color:#f89b7e;stop-opacity:1"
         offset="0" />
      <stop
         id="stop3246-1"
         style="stop-color:#e35d4f;stop-opacity:1"
         offset="0.26238" />
      <stop
         id="stop3248-5"
         style="stop-color:#c6262e;stop-opacity:1"
         offset="0.66093999" />
      <stop
         id="stop3250-7"
         style="stop-color:#690b2c;stop-opacity:1"
         offset="1" />
    </linearGradient>
    <linearGradient
       y2="42.100208"
       x2="23.99999"
       y1="5.8641062"
       x1="23.99999"
       gradientTransform="matrix(2.4594567,0,0,3.1080995,4.9730507,-14.594482)"
       gradientUnits="userSpaceOnUse"
       id="linearGradient3132"
       xlink:href="#linearGradient3977-4-9" />
    <linearGradient
       id="linearGradient3977-4-9">
      <stop
         offset="0"
         style="stop-color:#ffffff;stop-opacity:1"
         id="stop3979-7-7" />
      <stop
         offset="0.01214366"
         style="stop-color:#ffffff;stop-opacity:0.23529412"
         id="stop3981-6-7" />
      <stop
         offset="0.98781353"
         style="stop-color:#ffffff;stop-opacity:0.15686275"
         id="stop3983-5-5" />
      <stop
         offset="1"
         style="stop-color:#ffffff;stop-opacity:0.39215687"
         id="stop3985-6-6" />
    </linearGradient>
  </defs>
  <metadata
     id="metadata3177">
    <rdf:RDF>
      <cc:Work
         rdf:about="">
        <dc:format>image/svg+xml</dc:format>
        <dc:type
           rdf:resource="http://purl.org/dc/dcmitype/StillImage" />
        <dc:title />
      </cc:Work>
    </rdf:RDF>
  </metadata>
  <rect
     style="opacity:0.4;fill:url(#radialGradient3030);fill-opacity:1;stroke:none"
     id="rect2801"
     y="113"
     x="108"
     height="8.999999"
     width="6" />
  <rect
     style="opacity:0.4;fill:url(#radialGradient3027);fill-opacity:1;stroke:none"
     id="rect3696"
     transform="scale(-1,-1)"
     y="-122"
     x="-20"
     height="8.999999"
     width="6" />
  <rect
     style="opacity:0.4;fill:url(#linearGradient3024);fill-opacity:1;stroke:none"
     id="rect3700"
     y="113"
     x="20"
     height="9"
     width="88" />
  <path
     style="fill:url(#linearGradient3019);fill-opacity:1;stroke:none;display:inline"
     id="path4160"
     d="m 17.499929,1.500412 c 21.311061,0 93.000031,0.007 93.000031,0.007 l 1.1e-4,116.992628 c 0,0 -62.0001,0 -93.00014,0 0,-39.000029 0,-78.000054 0,-117.000079 z" />
  <path
     style="fill:none;stroke:url(#linearGradient3016);stroke-width:1;stroke-linecap:round;stroke-linejoin:round;stroke-miterlimit:4;stroke-opacity:1;stroke-dasharray:none;stroke-dashoffset:0"
     id="rect6741-1"
     d="m 109.5,117.5 -91,0 0,-115.000003 91,0 z" />
  <path
     style="opacity:0.3;fill:none;stroke:#000000;stroke-width:0.99992186;stroke-linecap:butt;stroke-linejoin:round;stroke-miterlimit:4;stroke-opacity:1;stroke-dasharray:none;stroke-dashoffset:0;display:inline"
     id="path4160-4"
     d="m 17.499929,1.5004119 c 21.311061,0 93.000031,0.007 93.000031,0.007 l 1.1e-4,116.9926281 c 0,0 -62.0001,0 -93.00014,0 0,-39.000029 0,-78.000054 0,-117.0000791 z" />
  <path
     style="color:#000000;clip-rule:nonzero;display:inline;overflow:visible;visibility:visible;opacity:1;isolation:auto;mix-blend-mode:normal;color-interpolation:sRGB;color-interpolation-filters:linearRGB;solid-color:#000000;solid-opacity:1;fill:url(#radialGradient3897);fill-opacity:1;fill-rule:nonzero;stroke:none;stroke-width:0.99999994;stroke-linecap:butt;stroke-linejoin:miter;stroke-miterlimit:4;stroke-dasharray:none;stroke-dashoffset:0;stroke-opacity:1;marker:none;color-rendering:auto;image-rendering:auto;shape-rendering:auto;text-rendering:auto;enable-background:accumulate"
     d="M 75.749995,2.0000014 C 48.852923,25.07916 29.82062,34.665262 18,38.625001 l 0,12.250001 C 24.569499,48.940525 32.713935,45.74479 41.187503,40.437502 60.68266,28.226978 83.9375,5.0625011 83.9375,5.0625011 77.545479,17.600835 75.686015,60.826777 75.562501,118 L 110,118 110,73.937502 c -1.51051,-6.723754 -2.85837,-13.526746 -4.06251,-20.0625 -3.17193,-24.070128 1.51349,-45.0946902 3.25001,-51.8750006 -0.45185,-5.05e-5 -20.328819,0.00131 -33.437505,0 z M 18,65.687502 l 0,11.8125 C 33.009298,83.695301 50.419177,99.667559 59.937501,118 L 70.1875,118 C 65.676635,101.19076 36.442618,75.836423 18,65.687502 Z"
     id="path6711" />
  <path
     style="opacity:0.1;fill:#8c0000;fill-opacity:1;fill-rule:evenodd;stroke:none;color:#000000;clip-rule:nonzero;display:inline;overflow:visible;visibility:visible;isolation:auto;mix-blend-mode:normal;color-interpolation:sRGB;color-interpolation-filters:linearRGB;solid-color:#000000;solid-opacity:1;stroke-width:1;stroke-linecap:butt;stroke-linejoin:miter;stroke-miterlimit:4;stroke-dasharray:none;stroke-dashoffset:0;stroke-opacity:1;filter-blend-mode:normal;filter-gaussianBlur-deviation:0;color-rendering:auto;image-rendering:auto;shape-rendering:auto;text-rendering:auto;enable-background:accumulate"
     d="M 110,3 C 95.399947,11.822582 53.75884,35.098466 18,37.19425 l 0,27.33044 c 20.876999,2.096833 64.873436,4.690049 92,-6.863809 L 110,3 Z m 0,71.383616 C 98.749557,87.395617 88.089596,102.53332 80.312498,118 l 12.249999,0 C 97.719194,109.30275 103.80788,100.06228 110,91.979926 l 0,-17.59631 z"
     id="path6713" />
  <path
     style="opacity:0.3;fill:none;stroke:url(#linearGradient3132);stroke-width:1;stroke-linecap:round;stroke-linejoin:miter;stroke-miterlimit:4;stroke-dasharray:none;stroke-dashoffset:0;stroke-opacity:1"
     d="m 18.500048,38.06317 0,12.400793 m 57.198809,67.035987 33.801093,0 0,-48.19246 m -0.0553,-66.8074395 -34.764804,0 m -56.1798,63.8244715 0,11.782129 m 40.835415,39.393299 10.608756,0"
     id="rect6741-1-8-0" />
  <path
     style="color:#000000;display:inline;overflow:visible;visibility:visible;opacity:0.2;fill:none;stroke:#410000;stroke-width:1;stroke-linecap:round;stroke-linejoin:round;stroke-miterlimit:4;stroke-dasharray:none;stroke-dashoffset:0;stroke-opacity:1;marker:none;enable-background:accumulate"
     d="m 17.500049,39.063013 0,11.731579 m 58.353939,67.705328 34.645962,0 0,-44.056076 m -1.51874,-72.9398912 -32.907581,-0.0039 m -58.57358,64.3449602 0,11.189932 m 42.748932,41.387485 9.717522,0.0775"
     id="path4160-6-1-0" />
  <path
     style="fill:#727272;stroke-width:1;fill-opacity:1;stroke:#e2e2e2;stroke-opacity:1;stroke-miterlimit:4;stroke-dasharray:none"
     d="m 55.784546,121.50162 c -2.762186,-1.59578 -6.585042,-4.68753 -7.045482,-5.69806 -0.233828,-0.5132 -0.301645,-1.35532 -0.150691,-1.87139 0.233216,-0.79738 24.331491,-23.412015 25.174203,-23.62433 0.286887,-0.07228 7.434782,8.362856 7.649321,9.026837 0.05943,0.183878 -4.758018,5.422013 -10.705387,11.640283 -11.971246,12.51656 -11.748978,12.35976 -14.921964,10.52666 z m 41.109219,0.14971 c -2.631623,-1.19382 -5.0798,-3.36109 -6.041953,-5.34865 -0.960493,-1.98409 -1.064666,-4.21841 -0.356554,-7.64679 0.317189,-1.53567 0.352671,-2.55681 0.101,-2.90595 C 89.548721,104.29699 68.708266,79.904497 66.31126,77.325826 l -2.752869,-2.961519 -4.286755,-0.517108 c -5.111773,-0.616636 -7.88612,-1.899136 -9.928807,-4.589809 -2.36467,-3.114782 -3.08945,-7.746028 -1.212236,-7.746028 0.271295,0 2.127359,1.175418 4.124589,2.612043 1.997217,1.436625 3.903858,2.615914 4.236977,2.620658 0.33312,0.005 1.514194,-0.420887 2.624604,-0.945835 3.306535,-1.563171 5.341631,-4.372412 4.180783,-5.771146 -0.291195,-0.350873 -2.109856,-1.700605 -4.041441,-2.99941 -1.931597,-1.298793 -3.639517,-2.567785 -3.795377,-2.819978 -0.547458,-0.885809 0.865671,-1.211898 4.665493,-1.076576 7.9949,0.284716 11.70975,3.916055 11.70975,11.446521 0,1.393778 0.170318,2.982105 0.378477,3.529614 0.571455,1.503044 9.331398,11.820729 19.243151,22.665096 9.544521,10.442551 8.941581,9.971811 15.250971,11.907151 3.55642,1.0909 6.09081,2.84398 7.17018,4.95972 1.39873,2.74172 1.02224,6.64726 -0.95693,9.9268 -1.02704,1.70184 -1.1761,1.55516 -3.73578,-3.6762 l -2.01893,-4.12621 -1.94444,-0.1241 c -2.34041,-0.14943 -4.74173,0.89214 -6.689206,2.90142 l -1.33054,1.37277 1.929012,3.59282 c 2.635264,4.90824 2.007464,6.07087 -2.238125,4.14486 z M 118.99696,86.847703 c -0.31441,-4.899233 -2.59898,-8.926528 -6.29124,-11.090329 -2.02132,-1.184583 -3.16057,-1.23893 -6.31752,-0.301421 -1.09577,0.325416 -2.65633,0.591654 -3.46792,0.591654 -1.29318,0 -1.80022,0.336928 -4.101539,2.725543 -2.067318,2.145749 -2.680596,3.071122 -2.882863,4.35004 -0.182814,1.155966 -0.710559,2.06747 -1.829759,3.160326 l -1.57283,1.535841 -2.001587,-2.150867 c -5.973575,-6.419107 -6.03093,-6.523705 -4.107485,-7.490703 0.526571,-0.264739 1.769294,-0.68831 2.761611,-0.941265 1.366811,-0.348426 2.488083,-1.126441 4.625268,-3.209342 l 2.821057,-2.749413 -0.116605,-3.772793 c -0.08739,-2.827307 -0.285191,-3.961487 -0.789315,-4.525763 -1.034776,-1.158227 -2.249756,-1.465902 -3.849682,-0.974875 -1.298294,0.398452 -1.600088,0.331871 -3.049948,-0.67288 -0.884997,-0.613303 -2.28212,-1.696884 -3.104706,-2.407955 -1.297295,-1.121422 -1.456988,-1.446864 -1.204196,-2.454024 0.362871,-1.445826 5.971765,-7.283279 7.996087,-8.321914 2.146981,-1.101584 2.691631,-0.990557 5.593266,1.140185 3.205636,2.353972 3.233656,2.394222 2.942296,4.227227 -0.22769,1.432556 -0.15908,1.54211 1.707,2.725543 1.06931,0.678149 2.37485,1.232999 2.90117,1.232999 1.27468,0 1.88764,0.356727 6.67988,3.88764 4.71996,3.477639 8.64757,7.898417 10.5369,11.859955 1.11425,2.336355 1.25172,3.025964 1.25172,6.279228 0,3.459574 -0.0861,3.825915 -1.61514,6.864327 -1.16231,2.309824 -1.8546,3.243899 -2.46921,3.331617 -0.78915,0.11261 -0.86857,-0.103874 -1.04471,-2.848581 z"
     id="path63"
     inkscape:connector-curvature="0" />
</svg>
